<?xml version="1.0" standalone="no"?>
<!-- Generator: Gravit.io -->
<svg xmlns="http://www.w3.org/2000/svg" xmlns:xlink="http://www.w3.org/1999/xlink" style="isolation:isolate" viewBox="0 0 59 59"
    width="59" height="59">
    <defs>
        <clipPath id="_clipPath_1VgXW2pRcArk4m1VNqQAUiFbqw9fOSXO">
            <rect width="59" height="59" />
        </clipPath>
    </defs>
    <g clip-path="url(#_clipPath_1VgXW2pRcArk4m1VNqQAUiFbqw9fOSXO)">
        <g style="isolation:isolate" id="Layer 1">
            <path d=" M 17.416 29.5 C 17.416 22.831 22.831 17.416 29.5 17.416 C 36.169 17.416 41.584 22.831 41.584 29.5 C 41.584 36.169 36.169 41.584 29.5 41.584 C 22.831 41.584 17.416 36.169 17.416 29.5 Z "
                fill="none" vector-effect="non-scaling-stroke" stroke-width="2" stroke="rgb(255,255,255)" stroke-linejoin="miter"
                stroke-linecap="square" stroke-miterlimit="3" />
            <path d=" M 28.475 22.494 C 24.984 22.494 22.496 25.67 22.496 28.473" fill="none" vector-effect="non-scaling-stroke"
                stroke-width="2" stroke="rgb(255,255,255)" stroke-linejoin="miter" stroke-linecap="round" stroke-miterlimit="4"
            />
            <path d=" M 1.414 29.401 Q 7.032 23.625 10.752 20.239 C 14.473 16.854 22.588 13.394 29.599 13.617 C 36.609 13.84 41.706 15.403 46.617 19.235 Q 51.528 23.067 57.634 29.665 Q 49.232 38.392 44.887 41.117 C 40.541 43.841 35.358 45.416 29.76 45.436 C 23.029 45.46 16.742 43.232 11.943 39.4 Q 7.143 35.568 1.414 29.401 Z "
                fill="none" vector-effect="non-scaling-stroke" stroke-width="2" stroke="rgb(255,255,255)" stroke-linejoin="miter"
                stroke-linecap="butt" stroke-miterlimit="4" />
        </g>
    </g>
</svg>