<?xml version="1.0" standalone="no"?>
<!-- Generator: Gravit.io -->
<svg xmlns="http://www.w3.org/2000/svg" xmlns:xlink="http://www.w3.org/1999/xlink" style="isolation:isolate" viewBox="0 0 58 58"
    width="58" height="58">
    <defs>
        <clipPath id="_clipPath_9sTr0xXLSKFmb8nHn5yKvEuVo5HFzSCQ">
            <rect width="58" height="58" />
        </clipPath>
    </defs>
    <g clip-path="url(#_clipPath_9sTr0xXLSKFmb8nHn5yKvEuVo5HFzSCQ)">
        <g style="isolation:isolate" id="Layer 0">
            <g style="isolation:isolate" id="Layer 1">
                <line x1="47.061" y1="29" x2="56.798" y2="29" vector-effect="non-scaling-stroke" stroke-width="2.206" stroke="rgb(255,255,255)"
                    stroke-linejoin="miter" stroke-linecap="butt" stroke-miterlimit="4" />
                <line x1="47.061" y1="40" x2="56.798" y2="40" vector-effect="non-scaling-stroke" stroke-width="2.206" stroke="rgb(255,255,255)"
                    stroke-linejoin="miter" stroke-linecap="butt" stroke-miterlimit="4" />
                <line x1="47.061" y1="18" x2="56.798" y2="18" vector-effect="non-scaling-stroke" stroke-width="2.206" stroke="rgb(255,255,255)"
                    stroke-linejoin="miter" stroke-linecap="butt" stroke-miterlimit="4" />
                <line x1="1" y1="40" x2="11.059" y2="40" vector-effect="non-scaling-stroke" stroke-width="2.243" stroke="rgb(255,255,255)"
                    stroke-linejoin="miter" stroke-linecap="butt" stroke-miterlimit="4" />
                <line x1="1" y1="29" x2="11.059" y2="29" vector-effect="non-scaling-stroke" stroke-width="2.243" stroke="rgb(255,255,255)"
                    stroke-linejoin="miter" stroke-linecap="butt" stroke-miterlimit="4" />
                <line x1="1" y1="18" x2="11.059" y2="18" vector-effect="non-scaling-stroke" stroke-width="2.243" stroke="rgb(255,255,255)"
                    stroke-linejoin="miter" stroke-linecap="butt" stroke-miterlimit="4" />
            </g>
            <path d="M 1.944 6.983 L 55.991 6.983 C 56.523 6.983 56.954 7.415 56.954 7.946 L 56.954 50.054 C 56.954 50.585 56.523 51.017 55.991 51.017 L 1.944 51.017 C 1.412 51.017 0.981 50.585 0.981 50.054 L 0.981 7.946 C 0.981 7.415 1.412 6.983 1.944 6.983 Z"
                style="fill:none;stroke:#FFFFFF;stroke-width:2;" />
            <rect x="11.019" y="6.983" width="36.115" height="44.034" transform="matrix(1,0,0,1,0,0)" fill="none" vector-effect="non-scaling-stroke"
                stroke-width="2" stroke="rgb(255,255,255)" stroke-linejoin="miter" stroke-linecap="butt" stroke-miterlimit="4"
            />
            <path d=" M 35.912 29.079 L 30.589 32.634 L 25.266 36.189 C 25.2 36.233 25.147 36.204 25.147 36.125 L 25.147 29 L 25.147 21.875 C 25.147 21.796 25.2 21.767 25.266 21.811 L 30.589 25.366 L 35.912 28.921 C 35.978 28.964 35.978 29.036 35.912 29.079 Z "
                fill="none" vector-effect="non-scaling-stroke" stroke-width="2" stroke="rgb(255,255,255)" stroke-linejoin="miter"
                stroke-linecap="square" stroke-miterlimit="3" />
        </g>
    </g>
</svg>