<?xml version="1.0" standalone="no"?>
<!-- Generator: Gravit.io -->
<svg xmlns="http://www.w3.org/2000/svg" xmlns:xlink="http://www.w3.org/1999/xlink" style="isolation:isolate" viewBox="49.731 357 472.325 404.5"
    width="472.325" height="404.5">
    <g style="isolation:isolate" id="Layer 0">
        <g style="isolation:isolate" id="Layer 1">
            <line x1="151.269" y1="551" x2="269.192" y2="551" vector-effect="non-scaling-stroke" stroke-width="17" stroke="rgb(255,255,255)"
                stroke-linejoin="miter" stroke-linecap="butt" stroke-miterlimit="3" />
            <line x1="151.269" y1="585" x2="269.192" y2="585" vector-effect="non-scaling-stroke" stroke-width="17" stroke="rgb(255,255,255)"
                stroke-linejoin="miter" stroke-linecap="butt" stroke-miterlimit="3" />
            <line x1="151.269" y1="618.5" x2="235.467" y2="618.5" vector-effect="non-scaling-stroke" stroke-width="17" stroke="rgb(255,255,255)"
                stroke-linejoin="miter" stroke-linecap="butt" stroke-miterlimit="3" />
            <line x1="303.206" y1="618.5" x2="387.404" y2="618.5" vector-effect="non-scaling-stroke" stroke-width="17" stroke="rgb(255,255,255)"
                stroke-linejoin="miter" stroke-linecap="butt" stroke-miterlimit="3" />
            <line x1="100.5" y1="753" x2="471" y2="753" vector-effect="non-scaling-stroke" stroke-width="17" stroke="rgb(255,255,255)"
                stroke-linejoin="miter" stroke-linecap="butt" stroke-miterlimit="3" />
            <line x1="303.206" y1="585" x2="421.129" y2="585" vector-effect="non-scaling-stroke" stroke-width="17" stroke="rgb(255,255,255)"
                stroke-linejoin="miter" stroke-linecap="butt" stroke-miterlimit="3" />
            <line x1="151.269" y1="517" x2="269.192" y2="517" vector-effect="non-scaling-stroke" stroke-width="17" stroke="rgb(255,255,255)"
                stroke-linejoin="miter" stroke-linecap="butt" stroke-miterlimit="3" />
            <path d="M 311.666 516.115 L 411.911 516.115 C 412.618 516.115 413.192 516.69 413.192 517.397 L 413.192 550.603 C 413.192 551.31 412.618 551.885 411.911 551.885 L 311.666 551.885 C 310.959 551.885 310.385 551.31 310.385 550.603 L 310.385 517.397 C 310.385 516.69 310.959 516.115 311.666 516.115 Z"
                style="fill:none;stroke:#FFFFFF;stroke-width:15;stroke-miterlimit:3;" />
            <line x1="318.639" y1="534.346" x2="405.745" y2="534.346" vector-effect="non-scaling-stroke" stroke-width="25"
                stroke="rgb(255,255,255)" stroke-linejoin="miter" stroke-linecap="round" stroke-miterlimit="3" />
        </g>
        <path d="M 92.231 382.5 L 479.556 382.5 C 488.939 382.5 496.556 390.117 496.556 399.5 L 496.556 702.5 C 496.556 711.883 488.939 719.5 479.556 719.5 L 92.231 719.5 C 82.848 719.5 75.231 711.883 75.231 702.5 L 75.231 399.5 C 75.231 390.117 82.848 382.5 92.231 382.5 Z"
            style="fill:none;stroke:#FFFFFF;stroke-width:17;stroke-linecap:square;stroke-miterlimit:3;" />
        <path d="M 118.994 466.5 L 453.074 466.5 C 458.59 466.5 463.068 470.978 463.068 476.494 L 463.068 675.006 C 463.068 680.522 458.59 685 453.074 685 L 118.994 685 C 113.478 685 109 680.522 109 675.006 L 109 476.494 C 109 470.978 113.478 466.5 118.994 466.5 Z"
            style="fill:none;stroke:#FFFFFF;stroke-width:17;stroke-linecap:square;stroke-miterlimit:3;" />
        <path d=" M 194.805 387.799 C 202.524 394.141 205.974 408.185 211.705 418.959 C 216.175 427.363 222.032 433.779 232.384 433 L 496.556 433"
            fill="none" vector-effect="non-scaling-stroke" stroke-width="17" stroke="rgb(255,255,255)" stroke-linejoin="miter"
            stroke-linecap="round" stroke-miterlimit="3" />
        <line x1="277.742" y1="382.5" x2="303.206" y2="433" vector-effect="non-scaling-stroke" stroke-width="17" stroke="rgb(255,255,255)"
            stroke-linejoin="miter" stroke-linecap="round" stroke-miterlimit="3" />
    </g>
</svg>