<?xml version="1.0" standalone="no"?>
<!-- Generator: Gravit.io -->
<svg xmlns="http://www.w3.org/2000/svg" xmlns:xlink="http://www.w3.org/1999/xlink" style="isolation:isolate" viewBox="639.833 354.837 518.333 426.632"
    width="518.333" height="426.632">
    <g style="isolation:isolate" id="Layer 0">
        <g style="isolation:isolate" id="Monitor">
            <path d=" M 816.776 696.958 L 1110.667 696.958 C 1121.153 696.958 1129.667 705.472 1129.667 715.958 L 1129.667 733.969 C 1129.667 744.455 1121.153 752.969 1110.667 752.969 L 816.776 752.969 C 806.289 752.969 797.776 744.455 797.776 733.969 L 797.776 715.958 C 797.776 705.472 806.289 696.958 816.776 696.958 Z "
                fill="none" vector-effect="non-scaling-stroke" stroke-width="19" stroke="rgb(255,255,255)" stroke-linejoin="miter"
                stroke-linecap="square" stroke-miterlimit="3" />
            <path d="M 844.333 420.189 L 1082.667 420.189 C 1088.186 420.189 1092.667 424.67 1092.667 430.189 L 1092.667 612.685 C 1092.667 618.204 1088.186 622.685 1082.667 622.685 L 844.333 622.685 C 838.814 622.685 834.333 618.204 834.333 612.685 L 834.333 430.189 C 834.333 424.67 838.814 420.189 844.333 420.189 Z"
                style="fill:none;stroke:#FFFFFF;stroke-width:19;stroke-linecap:square;stroke-miterlimit:3;" />
            <path d="M 815.776 383.337 L 1111.667 383.337 C 1121.601 383.337 1129.667 391.402 1129.667 401.337 L 1129.667 641.537 C 1129.667 651.471 1121.601 659.537 1111.667 659.537 L 815.776 659.537 C 805.841 659.537 797.776 651.471 797.776 641.537 L 797.776 401.337 C 797.776 391.402 805.841 383.337 815.776 383.337 Z"
                style="fill:none;stroke:#FFFFFF;stroke-width:19;stroke-linecap:square;stroke-miterlimit:3;" />
            <line x1="871.151" y1="659.537" x2="871.151" y2="696.958" vector-effect="non-scaling-stroke" stroke-width="19" stroke="rgb(255,255,255)"
                stroke-linejoin="miter" stroke-linecap="round" stroke-miterlimit="3" />
            <line x1="1055.79" y1="659.537" x2="1055.79" y2="696.959" vector-effect="non-scaling-stroke" stroke-width="19" stroke="rgb(255,255,255)"
                stroke-linejoin="miter" stroke-linecap="round" stroke-miterlimit="3" />
            <line x1="1046.654" y1="742.674" x2="880.385" y2="742.674" vector-effect="non-scaling-stroke" stroke-width="37" stroke="rgb(255,255,255)"
                stroke-linejoin="miter" stroke-linecap="round" stroke-miterlimit="3" />
            <path d="M 935.605 485.185 L 991.2 485.185 C 996.168 485.185 1000.2 489.217 1000.2 494.185 L 1000.2 549.434 C 1000.2 554.401 996.168 558.434 991.2 558.434 L 935.605 558.434 C 930.638 558.434 926.605 554.401 926.605 549.434 L 926.605 494.185 C 926.605 489.217 930.638 485.185 935.605 485.185 Z"
                style="stroke:none;fill:#FFFFFF;stroke-linecap:square;stroke-miterlimit:3;" />
        </g>
        <g style="isolation:isolate" id="Computer">
            <path d="M 715 494.333 L 787.776 494.333 C 793.295 494.333 797.776 498.814 797.776 504.333 L 797.776 557.667 C 797.776 563.186 793.295 567.667 787.776 567.667 L 715 567.667 C 709.481 567.667 705 563.186 705 557.667 L 705 504.333 C 705 498.814 709.481 494.333 715 494.333 Z"
                style="fill:none;stroke:#FFFFFF;stroke-width:19;stroke-linecap:square;stroke-miterlimit:3;" />
            <line x1="695.814" y1="641.544" x2="769.486" y2="641.544" vector-effect="non-scaling-stroke" stroke-width="19" stroke="rgb(255,255,255)"
                stroke-linejoin="miter" stroke-linecap="butt" stroke-miterlimit="3" />
            <line x1="695.814" y1="604.839" x2="769.486" y2="604.839" vector-effect="non-scaling-stroke" stroke-width="19" stroke="rgb(255,255,255)"
                stroke-linejoin="miter" stroke-linecap="butt" stroke-miterlimit="3" />
            <path d=" M 797.776 715.335 L 724 715.335 C 713.514 715.335 705 723.849 705 734.335 L 705 752.969 L 834.333 752.969" fill="none"
                vector-effect="non-scaling-stroke" stroke-width="19" stroke="rgb(255,255,255)" stroke-linejoin="miter" stroke-linecap="square"
                stroke-miterlimit="3" />
            <path d=" M 797.776 438.667 L 687.333 438.667 C 676.847 438.667 668.333 447.18 668.333 457.667 L 668.333 733.969 C 668.333 744.455 676.847 752.969 687.333 752.969 L 705 752.969"
                fill="none" vector-effect="non-scaling-stroke" stroke-width="19" stroke="rgb(255,255,255)" stroke-linejoin="miter"
                stroke-linecap="square" stroke-miterlimit="3" />
        </g>
    </g>
</svg>