<?xml version="1.0" standalone="no"?><!-- Generator: Gravit.io --><svg xmlns="http://www.w3.org/2000/svg" xmlns:xlink="http://www.w3.org/1999/xlink" style="isolation:isolate" viewBox="0 0 462.5 462.5" width="462.5" height="462.5"><defs><clipPath id="_clipPath_QbMN6AeuPxkRfYdAxjsUzyRcjRvDlbVV"><rect width="462.5" height="462.5"/></clipPath></defs><g clip-path="url(#_clipPath_QbMN6AeuPxkRfYdAxjsUzyRcjRvDlbVV)"><g id="Background"><g id="Bottom"><line x1="453" y1="25" x2="453" y2="462" vector-effect="non-scaling-stroke" stroke-width="20.032" stroke="rgb(67,131,228)" stroke-linejoin="miter" stroke-linecap="butt" stroke-miterlimit="4"/><line x1="26" y1="452.699" x2="463" y2="452.699" vector-effect="non-scaling-stroke" stroke-width="20.032" stroke="rgb(67,131,228)" stroke-linejoin="miter" stroke-linecap="butt" stroke-miterlimit="4"/></g><line x1="442.5" y1="2.5" x2="442.5" y2="442.5" vector-effect="non-scaling-stroke" stroke-width="5" stroke="rgb(67,131,228)" stroke-linejoin="miter" stroke-linecap="square" stroke-miterlimit="3"/><line x1="2.5" y1="2.5" x2="2.5" y2="442.5" vector-effect="non-scaling-stroke" stroke-width="5" stroke="rgb(67,131,228)" stroke-linejoin="miter" stroke-linecap="square" stroke-miterlimit="3"/><line x1="2.5" y1="442.5" x2="442.5" y2="442.5" vector-effect="non-scaling-stroke" stroke-width="5" stroke="rgb(67,131,228)" stroke-linejoin="miter" stroke-linecap="square" stroke-miterlimit="3"/><line x1="2.5" y1="2.5" x2="442.5" y2="2.5" vector-effect="non-scaling-stroke" stroke-width="5" stroke="rgb(67,131,228)" stroke-linejoin="miter" stroke-linecap="square" stroke-miterlimit="3"/></g><g id="Last Name"><g id="E"><g id="Stroke"><path d=" M 292.5 292.5 L 292.5 42.5 L 342.5 42.5 L 342.5 292.5 L 292.5 292.5 Z " fill="none" vector-effect="non-scaling-stroke" stroke-width="5" stroke="rgb(67,131,228)" stroke-linejoin="miter" stroke-linecap="square" stroke-miterlimit="3"/><path d=" M 292.5 242.5 L 292.5 292.5 L 402.5 292.5 L 402.5 242.5 L 342.5 242.5 L 292.5 242.5 Z " fill="none" vector-effect="non-scaling-stroke" stroke-width="5" stroke="rgb(67,131,228)" stroke-linejoin="miter" stroke-linecap="square" stroke-miterlimit="3"/><path d=" M 292.5 192.5 L 292.5 142.5 L 402.5 142.5 L 402.5 192.5 L 292.5 192.5 Z " fill="none" vector-effect="non-scaling-stroke" stroke-width="5" stroke="rgb(67,131,228)" stroke-linejoin="miter" stroke-linecap="square" stroke-miterlimit="3"/><path d=" M 292.5 92.5 L 292.5 42.5 L 402.5 42.5 L 402.5 92.966 L 292.5 92.5 Z " fill="none" vector-effect="non-scaling-stroke" stroke-width="5" stroke="rgb(67,131,228)" stroke-linejoin="miter" stroke-linecap="square" stroke-miterlimit="3"/></g><g id="Fill"><line x1="317" y1="169" x2="377" y2="169" vector-effect="non-scaling-stroke" stroke-width="50" stroke="rgb(67,131,228)" stroke-linejoin="miter" stroke-linecap="square" stroke-miterlimit="3"/><line x1="317" y1="268" x2="377" y2="268" vector-effect="non-scaling-stroke" stroke-width="50" stroke="rgb(67,131,228)" stroke-linejoin="miter" stroke-linecap="square" stroke-miterlimit="3"/><line x1="317" y1="69" x2="317" y2="266.088" vector-effect="non-scaling-stroke" stroke-width="50" stroke="rgb(67,131,228)" stroke-linejoin="miter" stroke-linecap="square" stroke-miterlimit="3"/><line x1="317" y1="69" x2="377" y2="69" vector-effect="non-scaling-stroke" stroke-width="50" stroke="rgb(67,131,228)" stroke-linejoin="miter" stroke-linecap="square" stroke-miterlimit="3"/></g></g><g id="E"><g id="Stroke"><path d=" M 142.5 292.5 L 142.5 42.5 L 192.5 42.5 L 192.5 292.5 L 142.5 292.5 Z " fill="none" vector-effect="non-scaling-stroke" stroke-width="5" stroke="rgb(67,131,228)" stroke-linejoin="miter" stroke-linecap="square" stroke-miterlimit="3"/><path d=" M 142.5 242.5 L 142.5 292.5 L 252.5 292.5 L 252.5 242.5 L 192.5 242.5 L 142.5 242.5 Z " fill="none" vector-effect="non-scaling-stroke" stroke-width="5" stroke="rgb(67,131,228)" stroke-linejoin="miter" stroke-linecap="square" stroke-miterlimit="3"/><path d=" M 142.5 192.5 L 142.5 142.5 L 252.5 142.5 L 252.5 192.5 L 142.5 192.5 Z " fill="none" vector-effect="non-scaling-stroke" stroke-width="5" stroke="rgb(67,131,228)" stroke-linejoin="miter" stroke-linecap="square" stroke-miterlimit="3"/><path d=" M 142.5 92.5 L 142.5 42.5 L 252.5 42.5 L 252.5 92.966 L 142.5 92.5 Z " fill="none" vector-effect="non-scaling-stroke" stroke-width="5" stroke="rgb(67,131,228)" stroke-linejoin="miter" stroke-linecap="square" stroke-miterlimit="3"/></g><g id="Fill"><line x1="167" y1="169" x2="227" y2="169" vector-effect="non-scaling-stroke" stroke-width="50" stroke="rgb(67,131,228)" stroke-linejoin="miter" stroke-linecap="square" stroke-miterlimit="3"/><line x1="167" y1="268" x2="227" y2="268" vector-effect="non-scaling-stroke" stroke-width="50" stroke="rgb(67,131,228)" stroke-linejoin="miter" stroke-linecap="square" stroke-miterlimit="3"/><line x1="167" y1="69" x2="167" y2="266.088" vector-effect="non-scaling-stroke" stroke-width="50" stroke="rgb(67,131,228)" stroke-linejoin="miter" stroke-linecap="square" stroke-miterlimit="3"/><line x1="167" y1="69" x2="227" y2="69" vector-effect="non-scaling-stroke" stroke-width="50" stroke="rgb(67,131,228)" stroke-linejoin="miter" stroke-linecap="square" stroke-miterlimit="3"/></g></g><g id="L"><g id="Stroke"><path d=" M 102.5 392.5 L 42.5 392.5 L 42.5 42.5 L 102.5 42.5 L 102.5 392.5 Z " fill="none" vector-effect="non-scaling-stroke" stroke-width="5" stroke="rgb(67,131,228)" stroke-linejoin="miter" stroke-linecap="square" stroke-miterlimit="3"/><path d=" M 42.5 392.5 L 402.5 392.5 L 402.5 332.5 L 42.5 332.5 L 42.5 392.5 Z " fill="none" vector-effect="non-scaling-stroke" stroke-width="5" stroke="rgb(67,131,228)" stroke-linejoin="miter" stroke-linecap="square" stroke-miterlimit="3"/></g><g id="Fill"><line x1="72.379" y1="361" x2="370.889" y2="361.782" vector-effect="non-scaling-stroke" stroke-width="60" stroke="rgb(67,131,228)" stroke-linejoin="miter" stroke-linecap="square" stroke-miterlimit="3"/><line x1="73" y1="73" x2="73" y2="360.828" vector-effect="non-scaling-stroke" stroke-width="60" stroke="rgb(67,131,228)" stroke-linejoin="miter" stroke-linecap="square" stroke-miterlimit="3"/></g></g></g></g></svg>