<?xml version="1.0" standalone="no"?>
<!-- Generator: Gravit.io -->
<svg xmlns="http://www.w3.org/2000/svg" xmlns:xlink="http://www.w3.org/1999/xlink" style="isolation:isolate" viewBox="1248.042 359.131 372.781 417.656"
    width="372.781" height="417.656">
    <g style="isolation:isolate" id="Layer 0">
        <g style="isolation:isolate" id="Dots">
            <g style="isolation:isolate" id="Bottom">
                <path d=" M 1479.307 672.027 C 1479.307 663.841 1485.952 657.196 1494.138 657.196 C 1502.323 657.196 1508.969 663.841 1508.969 672.027 C 1508.969 680.212 1502.323 686.858 1494.138 686.858 C 1485.952 686.858 1479.307 680.212 1479.307 672.027 Z "
                    fill="rgb(255,255,255)" />
                <path d=" M 1538.863 672.027 C 1538.863 663.841 1545.508 657.196 1553.693 657.196 C 1561.879 657.196 1568.524 663.841 1568.524 672.027 C 1568.524 680.212 1561.879 686.858 1553.693 686.858 C 1545.508 686.858 1538.863 680.212 1538.863 672.027 Z "
                    fill="rgb(255,255,255)" />
            </g>
            <g style="isolation:isolate" id="Middle">
                <path d=" M 1479.307 567.75 C 1479.307 559.565 1485.952 552.919 1494.138 552.919 C 1502.323 552.919 1508.969 559.565 1508.969 567.75 C 1508.969 575.935 1502.323 582.581 1494.138 582.581 C 1485.952 582.581 1479.307 575.935 1479.307 567.75 Z "
                    fill="rgb(255,255,255)" />
                <path d=" M 1538.863 567.75 C 1538.863 559.565 1545.508 552.919 1553.693 552.919 C 1561.879 552.919 1568.524 559.565 1568.524 567.75 C 1568.524 575.935 1561.879 582.581 1553.693 582.581 C 1545.508 582.581 1538.863 575.935 1538.863 567.75 Z "
                    fill="rgb(255,255,255)" />
            </g>
            <g style="isolation:isolate" id="Top">
                <path d=" M 1479.307 463.473 C 1479.307 455.288 1485.952 448.642 1494.138 448.642 C 1502.323 448.642 1508.969 455.288 1508.969 463.473 C 1508.969 471.659 1502.323 478.304 1494.138 478.304 C 1485.952 478.304 1479.307 471.659 1479.307 463.473 Z "
                    fill="rgb(255,255,255)" />
                <path d=" M 1538.863 463.473 C 1538.863 455.288 1545.508 448.642 1553.693 448.642 C 1561.879 448.642 1568.524 455.288 1568.524 463.473 C 1568.524 471.659 1561.879 478.304 1553.693 478.304 C 1545.508 478.304 1538.863 471.659 1538.863 463.473 Z "
                    fill="rgb(255,255,255)" />
            </g>
        </g>
        <g style="isolation:isolate" id="Gaps">
            <line x1="1330.615" y1="508.154" x2="1432.615" y2="508.154" vector-effect="non-scaling-stroke" stroke-width="30"
                stroke="rgb(255,255,255)" stroke-linejoin="miter" stroke-linecap="round" stroke-miterlimit="3" />
            <line x1="1330.956" y1="612.491" x2="1432.956" y2="612.491" vector-effect="non-scaling-stroke" stroke-width="30"
                stroke="rgb(255,255,255)" stroke-linejoin="miter" stroke-linecap="round" stroke-miterlimit="3" />
            <line x1="1330.441" y1="717.209" x2="1432.441" y2="717.209" vector-effect="non-scaling-stroke" stroke-width="30"
                stroke="rgb(255,255,255)" stroke-linejoin="miter" stroke-linecap="round" stroke-miterlimit="3" />
        </g>
        <g style="isolation:isolate" id="Boxes">
            <path d="M 1285.542 411.287 L 1583.323 411.287 C 1591.601 411.287 1598.323 418.008 1598.323 426.287 L 1598.323 500.475 C 1598.323 508.753 1591.601 515.475 1583.323 515.475 L 1285.542 515.475 C 1277.263 515.475 1270.542 508.753 1270.542 500.475 L 1270.542 426.287 C 1270.542 418.008 1277.263 411.287 1285.542 411.287 Z"
                style="fill:none;stroke:#FFFFFF;stroke-width:15;stroke-linecap:round;stroke-miterlimit:3;" />
            <path d="M 1285.542 619.662 L 1583.323 619.662 C 1591.601 619.662 1598.323 626.384 1598.323 634.662 L 1598.323 708.85 C 1598.323 717.128 1591.601 723.85 1583.323 723.85 L 1285.542 723.85 C 1277.263 723.85 1270.542 717.128 1270.542 708.85 L 1270.542 634.662 C 1270.542 626.384 1277.263 619.662 1285.542 619.662 Z"
                style="fill:none;stroke:#FFFFFF;stroke-width:15;stroke-linecap:round;stroke-miterlimit:3;" />
            <path d="M 1285.542 515.475 L 1583.323 515.475 C 1591.601 515.475 1598.323 522.196 1598.323 530.475 L 1598.323 604.662 C 1598.323 612.941 1591.601 619.662 1583.323 619.662 L 1285.542 619.662 C 1277.263 619.662 1270.542 612.941 1270.542 604.662 L 1270.542 530.475 C 1270.542 522.196 1277.263 515.475 1285.542 515.475 Z"
                style="fill:none;stroke:#FFFFFF;stroke-width:15;stroke-linecap:round;stroke-miterlimit:3;" />
        </g>
        <g style="isolation:isolate" id="Extras">
            <path d=" M 1315.003 381.631 L 1553.861 381.631 C 1562.14 381.631 1568.861 388.352 1568.861 396.631 L 1568.861 411.287 L 1300.003 411.287 L 1300.003 396.631 C 1300.003 388.352 1306.724 381.631 1315.003 381.631 Z "
                fill="none" vector-effect="non-scaling-stroke" stroke-width="15" stroke="rgb(255,255,255)" stroke-linejoin="miter"
                stroke-linecap="round" stroke-miterlimit="3" />
            <path d=" M 1300.003 723.85 L 1389.557 723.85 L 1389.557 739.287 C 1389.557 747.565 1382.836 754.287 1374.557 754.287 L 1315.003 754.287 C 1306.724 754.287 1300.003 747.565 1300.003 739.287 L 1300.003 723.85 Z "
                fill="none" vector-effect="non-scaling-stroke" stroke-width="15" stroke="rgb(255,255,255)" stroke-linejoin="miter"
                stroke-linecap="round" stroke-miterlimit="3" />
            <path d=" M 1479.307 723.85 L 1568.861 723.85 L 1568.861 739.287 C 1568.861 747.565 1562.14 754.287 1553.861 754.287 L 1494.307 754.287 C 1486.028 754.287 1479.307 747.565 1479.307 739.287 L 1479.307 723.85 Z "
                fill="none" vector-effect="non-scaling-stroke" stroke-width="15" stroke="rgb(255,255,255)" stroke-linejoin="miter"
                stroke-linecap="round" stroke-miterlimit="3" />
        </g>
        <g style="isolation:isolate" id="Bars">
            <g style="isolation:isolate" id="Bottom">
                <line x1="1315.172" y1="671.936" x2="1344.78" y2="671.936" vector-effect="non-scaling-stroke" stroke-width="15"
                    stroke="rgb(255,255,255)" stroke-linejoin="miter" stroke-linecap="butt" stroke-miterlimit="3" />
                <line x1="1419.55" y1="671.936" x2="1449.373" y2="671.936" vector-effect="non-scaling-stroke" stroke-width="15"
                    stroke="rgb(255,255,255)" stroke-linejoin="miter" stroke-linecap="butt" stroke-miterlimit="3" />
                <line x1="1359.692" y1="671.936" x2="1404.639" y2="671.936" vector-effect="non-scaling-stroke" stroke-width="15"
                    stroke="rgb(255,255,255)" stroke-linejoin="miter" stroke-linecap="butt" stroke-miterlimit="3" />
            </g>
            <g style="isolation:isolate" id="Middle">
                <line x1="1315.172" y1="567.75" x2="1344.78" y2="567.75" vector-effect="non-scaling-stroke" stroke-width="15"
                    stroke="rgb(255,255,255)" stroke-linejoin="miter" stroke-linecap="butt" stroke-miterlimit="3" />
                <line x1="1419.55" y1="567.75" x2="1449.373" y2="567.75" vector-effect="non-scaling-stroke" stroke-width="15"
                    stroke="rgb(255,255,255)" stroke-linejoin="miter" stroke-linecap="butt" stroke-miterlimit="3" />
                <line x1="1359.692" y1="567.75" x2="1404.639" y2="567.75" vector-effect="non-scaling-stroke" stroke-width="15"
                    stroke="rgb(255,255,255)" stroke-linejoin="miter" stroke-linecap="butt" stroke-miterlimit="3" />
            </g>
            <g style="isolation:isolate" id="Top">
                <line x1="1315.172" y1="463.204" x2="1344.78" y2="463.204" vector-effect="non-scaling-stroke" stroke-width="15"
                    stroke="rgb(255,255,255)" stroke-linejoin="miter" stroke-linecap="butt" stroke-miterlimit="3" />
                <line x1="1419.55" y1="463.204" x2="1449.373" y2="463.204" vector-effect="non-scaling-stroke" stroke-width="15"
                    stroke="rgb(255,255,255)" stroke-linejoin="miter" stroke-linecap="butt" stroke-miterlimit="3" />
                <line x1="1359.692" y1="463.204" x2="1404.639" y2="463.204" vector-effect="non-scaling-stroke" stroke-width="15"
                    stroke="rgb(255,255,255)" stroke-linejoin="miter" stroke-linecap="butt" stroke-miterlimit="3" />
            </g>
        </g>
    </g>
</svg>